<svg xmlns="http://www.w3.org/2000/svg" viewBox="0 0 24 24" role="img" aria-label="VS Code Insiders">
  <path fill="#24B47E" d="M23.15 2.587L18.21.21a1.494 1.494 0 0 0-1.635 0l-12.85 7.47A1.498 1.498 0 0 0 3 9.223v5.554a1.498 1.498 0 0 0 .725 1.283l3.043 1.732-3.043 1.732A1.498 1.498 0 0 0 3 20.777V9.223a1.498 1.498 0 0 1 .725-1.283l12.85-7.47a1.494 1.494 0 0 1 1.635 0l4.94 2.377A1.498 1.498 0 0 1 23.15 2.587z"/>
  <path fill="#3FD08A" d="M20.406 4.013 7.556 11.483v1.034l12.85 7.47a1.494 1.494 0 0 0 1.635 0l3.044-1.732a1.498 1.498 0 0 0 .725-1.283V6.028a1.498 1.498 0 0 0-.725-1.283l-3.044-1.732a1.494 1.494 0 0 0-1.635 0z"/>
  <path fill="#fff" d="M7.556 11.483 3.725 9.223v5.554l3.831 2.26V11.483z"/>
</svg>
